<svg width="82" height="112" viewBox="0 0 82 112" fill="none" xmlns="http://www.w3.org/2000/svg">
<path d="M52.7174 111.8C68.6895 111.8 81.6374 109.982 81.6374 107.74C81.6374 105.498 68.6895 103.68 52.7174 103.68C36.7453 103.68 23.7974 105.498 23.7974 107.74C23.7974 109.982 36.7453 111.8 52.7174 111.8Z" fill="#547A3C"/>
<path d="M8.03708 67.14L24.4971 61.3199C25.0871 61.1099 25.4671 60.1999 25.3471 59.2899L20.7171 24.71C20.5971 23.8 20.0171 23.23 19.4271 23.44L2.96714 29.2599C2.37714 29.4699 1.9971 30.3799 2.1171 31.2899L6.7471 65.87C6.8671 66.78 7.44708 67.35 8.03708 67.14Z" fill="#FF4F68"/>
<path d="M5.3974 30.3901L17.5074 26.11L19.3374 25.4601L23.6974 57.9899L7.91736 63.57L3.55737 31.04L5.3974 30.3901Z" fill="#F9E5D2"/>
<path d="M21.0874 54.9299L10.0774 58.8198" stroke="#292429" stroke-width="1.55" stroke-miterlimit="10" stroke-linecap="round"/>
<path d="M20.627 51.5398L9.61694 55.4399" stroke="#292429" stroke-width="1.55" stroke-miterlimit="10" stroke-linecap="round"/>
<path d="M20.167 48.1599L9.15698 52.0497" stroke="#292429" stroke-width="1.55" stroke-miterlimit="10" stroke-linecap="round"/>
<path d="M19.6973 44.7697L8.68726 48.6599" stroke="#292429" stroke-width="1.55" stroke-miterlimit="10" stroke-linecap="round"/>
<path d="M19.2373 41.38L8.22729 45.2799" stroke="#292429" stroke-width="1.55" stroke-miterlimit="10" stroke-linecap="round"/>
<path d="M18.7776 37.9997L7.76758 41.8898" stroke="#292429" stroke-width="1.55" stroke-miterlimit="10" stroke-linecap="round"/>
<path d="M18.3074 34.6099L7.29736 38.4998" stroke="#292429" stroke-width="1.55" stroke-miterlimit="10" stroke-linecap="round"/>
<path d="M17.8474 31.2202L6.8374 35.1201" stroke="#292429" stroke-width="1.55" stroke-miterlimit="10" stroke-linecap="round"/>
<path d="M5.81733 27.71L6.25734 30.9898C6.37734 31.3098 6.5573 31.49 6.7873 31.41L16.5773 27.95C16.7973 27.87 16.9173 27.5898 16.8773 27.2398L16.4373 23.96C16.2473 22.52 15.2273 21.6198 14.1773 21.9898L13.2073 22.3299C12.7773 20.6099 11.5873 19.5898 10.3573 20.0298C9.12731 20.4698 8.2973 22.1998 8.3473 24.0498L7.37733 24.3899C6.32733 24.7599 5.62734 26.21 5.82734 27.71H5.81733ZM10.3374 24.0098C10.2774 23.5298 10.4774 23.06 10.7774 22.95C11.0774 22.84 11.3873 23.1399 11.4573 23.6099C11.5273 24.0799 11.3173 24.56 11.0173 24.67C10.7173 24.78 10.4074 24.4798 10.3374 24.0098Z" fill="#FAAF42"/>
<path d="M47.2772 53.96C40.8272 58.29 27.5472 58.2198 11.8472 49.3098" stroke="#F9E5D2" stroke-width="23.69" stroke-linecap="round" stroke-linejoin="round"/>
<path d="M31.7678 79.2801C32.3778 90.4001 41.8878 98.9101 53.0078 98.3001C64.1278 97.6901 72.6378 88.1801 72.0278 77.0601L69.6378 33.6703C69.0278 22.5503 59.5178 14.0402 48.3978 14.6502C37.2778 15.2602 28.7678 24.7702 29.3778 35.8902L31.7678 79.2801Z" fill="#F9E5D2"/>
<path d="M53.118 97.41C53.218 95.36 54.968 93.79 57.028 93.89C59.078 93.99 60.668 95.7399 60.558 97.7899L60.158 105.78C60.058 107.83 58.308 109.4 56.248 109.3C54.198 109.2 52.608 107.45 52.718 105.4L53.118 97.41Z" fill="#F9E5D2"/>
<path d="M49.258 104.2C49.158 106.25 47.418 107.84 45.378 107.74C43.338 107.64 41.748 105.9 41.848 103.84L42.228 95.83C42.328 93.78 44.068 92.19 46.108 92.29C48.158 92.39 49.738 94.1301 49.638 96.1901L49.258 104.2Z" fill="#F9E5D2"/>
<path d="M31.2179 26.6299C32.8579 27.8699 35.1878 27.55 36.4378 25.91C37.6778 24.27 37.3579 21.94 35.7179 20.69L29.3278 15.8399C27.6878 14.5999 25.3578 14.9199 24.1078 16.5599C22.8678 18.1999 23.1878 20.5298 24.8278 21.7798L31.2179 26.6299Z" fill="#F9E5D2"/>
<path d="M51.1015 33.3607C51.5631 31.4325 50.3739 29.4952 48.4457 29.0337C46.5175 28.5722 44.5803 29.7612 44.1188 31.6895C43.6573 33.6177 44.8462 35.5549 46.7744 36.0164C48.7027 36.4779 50.64 35.289 51.1015 33.3607Z" fill="#292429" stroke="#231F20" stroke-width="0.46" stroke-miterlimit="10"/>
<path d="M27.7374 67.7398C34.8074 68.8498 40.0574 67.7298 43.7774 65.2398C43.7774 65.2398 37.0574 73.2899 29.5574 73.2899C22.0574 73.2899 22.5474 66.9298 27.7374 67.7398Z" fill="#292429"/>
<path d="M33.1477 10.9603L34.2377 9.12025L41.1877 13.2304C44.8177 7.09036 50.8977 4.90028 50.8977 4.90028C50.8977 4.90028 54.5477 -0.0298636 56.4677 0.000136359C58.3877 0.0301364 62.4277 1.59036 66.0377 3.73036C69.6477 5.87036 75.8177 11.6302 75.8977 18.0302C75.9777 24.4302 72.8877 31.9901 72.8877 31.9901L73.7077 32.4704L72.6177 34.3102L33.1477 10.9704V10.9603Z" fill="#FFB000"/>
<path d="M50.0375 8.48041L48.7175 9.40033" stroke="#F9E5D2" stroke-width="1.55" stroke-miterlimit="10" stroke-linecap="round"/>
<path d="M62.3572 6.64017C59.2772 5.63017 55.6672 5.48003 53.1572 6.74003" stroke="#F9E5D2" stroke-width="1.55" stroke-miterlimit="10" stroke-linecap="round"/>
<path d="M31.4545 81.8849L73.689 77.714L73.1691 72.4496L30.9346 76.6205L31.4545 81.8849Z" fill="#FFB000"/>
<path d="M50.0555 83.1195L51.5681 82.9702L51.0001 77.2181L49.4874 77.3675L50.0555 83.1195Z" fill="#231F20"/>
<path d="M49.7856 78.3942L50.8803 78.2861C51.3804 78.2367 51.7459 77.7913 51.6965 77.2911L51.3358 73.639C51.2864 73.1388 50.8409 72.7733 50.3407 72.8227L49.2461 72.9308C48.7459 72.9802 48.3805 73.4258 48.4299 73.926L48.7906 77.5781C48.8399 78.0783 49.2855 78.4436 49.7856 78.3942Z" fill="#231F20"/>
<path d="M54.7972 72.4305L52.4373 72.7903L53.4272 83.8404C53.4772 84.3104 53.9372 84.6604 54.4272 84.5904L55.7073 84.3904C56.1773 84.3404 56.5273 83.8804 56.4573 83.3904L54.7972 72.4205V72.4305Z" fill="black"/>
<path d="M48.1672 69.6402L48.3972 71.4102C48.4472 71.7702 48.7572 72.0003 49.1372 71.9703L49.5372 71.9002C49.8172 71.8802 50.0972 71.6603 50.1072 71.4603C50.0272 71.2203 50.3272 70.9302 50.8672 70.8702C51.6572 70.7402 52.2472 71.1601 52.2872 71.5601C52.3272 71.7001 52.3872 72.2401 52.3872 72.2401L54.7672 71.9202L54.7072 71.5301C54.7072 71.5301 54.6972 71.4303 54.6772 71.2203C54.5772 70.4803 55.3772 70.3301 55.3772 70.3301C57.4672 70.0501 59.1372 71.3402 59.1372 71.3402L59.4772 70.9302C56.7572 67.5202 54.3672 68.0302 53.5572 68.1502C52.8172 68.2602 52.0372 68.3602 51.8372 68.3902C51.4172 68.4502 51.1372 69.3103 50.4972 69.4403C50.2072 69.4803 49.9272 69.3901 49.7672 69.2601C49.7072 68.9501 49.3672 68.7902 49.0972 68.8402L48.7272 68.9102C48.3672 68.9602 48.1372 69.2702 48.1672 69.6502V69.6402Z" fill="black"/>
<path d="M57.6171 77.7402C57.5771 77.1002 57.5271 76.8903 57.0571 76.5903C56.5371 76.2703 56.0071 75.7502 56.0471 74.7702C56.0571 74.6202 56.1371 74.3002 56.1071 74.2802C56.4171 72.9902 57.7171 72.5502 57.7171 72.5502L57.8871 72.5903C57.8871 72.5903 57.6471 73.8304 57.6171 73.9704C57.5771 74.1404 57.6271 74.8202 58.5871 74.9902C59.5271 75.1802 59.7471 74.5803 59.7771 74.3603C59.8171 74.2103 60.0671 72.9902 60.0671 72.9902L60.2371 73.0302C60.2371 73.0302 61.2971 73.9602 61.0271 75.3102C60.9071 75.9502 60.4971 76.3702 60.0971 76.5602C59.7171 76.7602 59.6171 77.0802 59.6071 77.7902L59.8271 86.2502C59.8471 86.9302 59.3271 87.4602 58.6471 87.4902C57.9671 87.4902 57.4171 86.9802 57.4071 86.3102L57.6071 77.7402H57.6171ZM58.6371 86.9103C58.9971 86.9103 59.2471 86.6102 59.2471 86.2502C59.2471 85.9302 58.9471 85.6403 58.6171 85.6403C58.2571 85.6603 57.9871 85.9402 57.9871 86.2902C57.9871 86.6302 58.2971 86.9403 58.6371 86.9203V86.9103Z" fill="black"/>
<path d="M59.5979 90.8813L52.6816 91.5643C50.2534 91.8041 48.0884 90.0284 47.8486 87.6002L47.1322 80.3454L62.8458 78.7936L63.5622 86.0484C63.802 88.4766 62.0261 90.6415 59.5979 90.8813Z" fill="#FFB000"/>
</svg>
