<svg width="128" height="96" viewBox="0 0 128 96" fill="none" xmlns="http://www.w3.org/2000/svg">
<path d="M88.5122 45.4943L41.6258 31.6771C29.5685 28.1239 16.9136 35.0176 13.3604 47.0749C9.80716 59.1323 16.7012 71.7869 28.7585 75.3402L75.6449 89.1574C87.7023 92.7106 100.357 85.8169 103.91 73.7596C107.464 61.7022 100.57 49.0476 88.5122 45.4943Z" fill="#F9E5D2"/>
<path d="M79.9743 62.2012L95.0917 29.3639C98.9787 20.9207 95.2851 10.9251 86.8419 7.0381C78.3987 3.1511 68.4031 6.84458 64.5161 15.2878L49.3987 48.1251C45.5117 56.5682 49.2053 66.5639 57.6485 70.4509C66.0917 74.3379 76.0873 70.6444 79.9743 62.2012Z" fill="#F9E5D2"/>
<path d="M84.1501 71.9761L113.522 50.9015C121.074 45.4828 122.803 34.9679 117.384 27.4158C111.966 19.8637 101.451 18.1343 93.8987 23.553L64.5271 44.6275C56.9751 50.0462 55.2457 60.5612 60.6644 68.1132C66.0831 75.6653 76.5981 77.3948 84.1501 71.9761Z" fill="#F9E5D2"/>
<path d="M15.1461 43.2511L6.44601 40.6872C4.20513 40.0268 1.85378 41.306 1.19418 43.5442C0.534586 45.7825 1.81659 48.1319 4.05748 48.7923L12.7576 51.3561C14.9984 52.0165 17.3496 50.7378 18.0092 48.4995C18.6688 46.2613 17.387 43.9114 15.1461 43.2511Z" fill="#F9E5D2"/>
<path d="M32.7091 54.4251C34.9281 54.1439 36.4991 52.1169 36.2179 49.8979C35.9368 47.6789 33.9101 46.1081 31.6911 46.3892C29.4721 46.6703 27.9011 48.6969 28.1822 50.9159C28.4633 53.1349 30.4901 54.7062 32.7091 54.4251Z" fill="#292429" stroke="#231F20" stroke-width="0.31" stroke-miterlimit="10"/>
</svg>
