<svg width="67" height="109" viewBox="0 0 67 109" fill="none" xmlns="http://www.w3.org/2000/svg">
<path d="M28.8216 92.9847C31.1016 92.8447 32.8217 90.8746 32.6817 88.5946C32.5417 86.3146 30.5817 84.5747 28.3017 84.7147L7.17167 85.9744C4.89167 86.1144 3.17168 88.0846 3.31168 90.3646C3.45168 92.6446 5.41169 94.3845 7.69169 94.2445L28.8216 92.9847Z" fill="#FF4F68"/>
<path d="M16.772 80.3143C17.382 94.1743 29.102 104.924 42.962 104.314C56.822 103.704 67.572 91.9843 66.962 78.1243L64.602 24.0247C63.992 10.1647 52.272 -0.585271 38.412 0.0247285C24.552 0.634729 13.802 12.3547 14.412 26.2147L16.772 80.3143Z" fill="#FF4F68"/>
<path d="M14.5217 28.4539C17.0817 28.5239 19.2117 26.5039 19.2817 23.9339C19.3517 21.3739 17.3317 19.2441 14.7617 19.1741L4.76171 18.9139C2.20171 18.8439 0.0717657 20.8639 0.00176571 23.4339C-0.0682343 26.0039 1.95172 28.1241 4.52172 28.1941L14.5217 28.4539Z" fill="#FAAF42"/>
<path d="M44.5875 23.7354C45.2298 21.3517 43.8179 18.8986 41.4342 18.2563C39.0505 17.614 36.5977 19.0258 35.9554 21.4095C35.3131 23.7932 36.7246 26.2462 39.1083 26.8885C41.492 27.5307 43.9452 26.1191 44.5875 23.7354Z" fill="#292429" stroke="#231F20" stroke-width="0.34" stroke-miterlimit="10"/>
<path d="M15.8116 100.735C13.5616 101.135 12.0615 103.275 12.4615 105.515C12.8615 107.755 15.0115 109.254 17.2615 108.854L38.1315 105.195C40.3815 104.795 41.8816 102.654 41.4816 100.414C41.0816 98.1744 38.9316 96.6746 36.6816 97.0746L15.8116 100.735Z" fill="#FF4F68"/>
</svg>
